<svg width="19" height="20" viewBox="0 0 19 20" fill="none" xmlns="http://www.w3.org/2000/svg">
<path d="M7.23319 8.46076C7.32276 8.10248 7.60251 7.82273 7.96079 7.73315L11.4187 6.86869C12.151 6.68559 12.8144 7.34899 12.6313 8.08137L11.7669 11.5392C11.6773 11.8975 11.3975 12.1773 11.0393 12.2668L7.5814 13.1313C6.84902 13.3144 6.18562 12.651 6.36872 11.9186L7.23319 8.46076Z" stroke="#E8E0E5" stroke-width="1.5" stroke-linecap="round" stroke-linejoin="round"/>
<path d="M9.5 1.5C3 1.5 1 3.5 1 10C1 16.5 3 18.5 9.5 18.5C16 18.5 18 16.5 18 10C18 3.5 16 1.5 9.5 1.5Z" stroke="#E8E0E5" stroke-width="1.5" stroke-linecap="round" stroke-linejoin="round"/>
</svg>
